<?xml version="1.0" encoding="utf-8"?>
<!-- Generator: Adobe Illustrator 16.0.0, SVG Export Plug-In . SVG Version: 6.00 Build 0)  -->
<!DOCTYPE svg PUBLIC "-//W3C//DTD SVG 1.1//EN" "http://www.w3.org/Graphics/SVG/1.1/DTD/svg11.dtd">
<svg version="1.1" xmlns="http://www.w3.org/2000/svg" xmlns:xlink="http://www.w3.org/1999/xlink" x="0px" y="0px" width="612px"
	 height="792px" viewBox="0 0 612 792" enable-background="new 0 0 612 792" xml:space="preserve">
<g id="Layer_1" display="none">
	<path display="inline" d="M163.245,421.871v6.34h32.982v-6.418C184.879,422.03,173.871,422.042,163.245,421.871z"/>
	<path display="inline" d="M270.666,428.211h34.805v-15.682c-11.78,1.785-23.391,3.273-34.805,4.506V428.211z"/>
	<g display="inline">
		<path fill="none" d="M95.869,379.102c0.167,0.028,0.333,0.054,0.5,0.082v-0.082H95.869z"/>
		<path fill="none" d="M379.342,372.258c9.786-2.008,19.35-4.148,28.678-6.395l-13.239-38.553L379.342,372.258z"/>
		<path fill="none" d="M248.891,388.418c7.327-0.304,14.586-0.708,21.775-1.206v-49.839L248.891,388.418z"/>
		<path fill="none" d="M196.228,388.795c7.409,0.205,14.765,0.302,22.06,0.29l-22.06-51.712V388.795z"/>
		<path d="M96.37,379.102v0.082c11.94,1.992,23.79,3.662,35.533,5.023v-30.708H69.309v20.625c8.899,1.842,17.755,3.502,26.56,4.978
			H96.37z"/>
		<path d="M40.336,359.695c0-7.349,1.107-13.834,3.325-19.452c2.217-5.618,5.239-10.25,9.066-13.895
			c4.009-3.766,8.533-6.561,13.576-8.383c5.041-1.822,10.66-2.733,16.855-2.733c5.285,0,10.28,0.699,14.988,2.096
			c4.707,1.398,8.822,3.068,12.346,5.012c3.037,1.64,6.196,3.63,9.476,5.968c3.28,2.339,5.77,4.146,7.471,5.421h3.918v-31.798
			c-9.901-4.798-18.892-8.003-26.969-9.612c-8.079-1.609-16.582-2.415-25.511-2.415c-23.568,0-41.943,6.455-55.123,19.361
			c-12.57,12.31-19.131,28.342-19.714,48.079c12.298,3.796,24.535,7.204,36.702,10.253C40.473,365.08,40.336,362.448,40.336,359.695
			z"/>
		<path d="M23.571,412.221c13.059,12.544,31.129,18.814,54.211,18.814c9.961,0,19.954-1.17,29.976-3.508
			c9.583-2.234,17.339-4.486,23.313-6.749c-51.786-2.694-91.389-9.262-111.941-13.314C20.517,409.118,21.994,410.706,23.571,412.221
			z"/>
		<path d="M95.869,379.102c-8.805-1.476-17.661-3.136-26.56-4.978v4.978H95.869z"/>
		<path d="M196.228,337.373l22.06,51.712c10.323-0.017,20.525-0.249,30.604-0.667l21.775-51.045v49.839
			c11.798-0.819,23.408-1.886,34.805-3.178v-91.488h-40.636l-30.432,68.061l-30.522-68.061h-40.636v94.602
			c11.105,0.803,22.104,1.347,32.982,1.647V337.373z"/>
		<path d="M324.969,428.211h35.258l9.451-27.425h50.204l9.45,27.425h36.131l-18.846-51.02
			c-38.707,13.903-77.103,23.847-114.17,30.773L324.969,428.211z"/>
		<path d="M394.78,327.311l13.239,38.553c10.789-2.599,21.258-5.338,31.394-8.177l-24.062-65.141H375.08l-31.885,86.322
			c12.351-1.982,24.408-4.2,36.146-6.61L394.78,327.311z"/>
		<path d="M511.225,292.546h-40.387l31.479,44.986c11.007-3.98,21.369-7.972,31.024-11.882L511.225,292.546z"/>
		<path d="M605.709,294.667c-30.954,21.903-62.649,40.244-94.521,55.543l6.757,9.657l-48.108,68.344h38.658l29.782-44.531
			l29.186,44.531h40.5L559.89,358.44L605.709,294.667z"/>
		<path d="M568.465,292.546l-17.758,25.848c23.719-10.222,42.085-19.438,54.114-25.848H568.465z"/>
	</g>
	<g display="inline">
		<path stroke="#000000" stroke-width="3" stroke-miterlimit="10" d="M139.813,717.589c-6.559,2.556-15.248,5.099-26.069,7.623
			S92.133,729,81.377,729c-24.922,0-44.433-6.772-58.533-20.314C8.743,695.143,1.693,676.435,1.693,652.562
			c0-22.757,7.115-41.104,21.348-55.041c14.23-13.937,34.07-20.905,59.517-20.905c9.641,0,18.822,0.87,27.545,2.607
			c8.722,1.738,18.429,5.198,29.119,10.379v34.333h-4.23c-1.837-1.378-4.525-3.328-8.067-5.854
			c-3.542-2.524-6.952-4.673-10.231-6.443c-3.804-2.099-8.248-3.901-13.33-5.41c-5.083-1.508-10.477-2.264-16.183-2.264
			c-6.689,0-12.756,0.984-18.199,2.951c-5.444,1.968-10.33,4.985-14.658,9.051c-4.132,3.936-7.395,8.937-9.788,15.003
			c-2.395,6.066-3.591,13.067-3.591,21.003c0,16.199,4.295,28.595,12.887,37.186c8.591,8.593,21.281,12.887,38.071,12.887
			c1.442,0,3.032-0.032,4.771-0.098c1.736-0.065,3.328-0.163,4.771-0.296v-28.726H72.229v-27.643h67.584V717.589z"/>
		<path stroke="#000000" stroke-width="3" stroke-miterlimit="10" d="M312.712,725.95h-37.58v-98.08l-27.151,63.648h-26.07
			L194.76,627.87v98.08h-35.612V579.469h43.875l32.956,73.486l32.857-73.486h43.875V725.95z"/>
		<path stroke="#000000" stroke-width="3" stroke-miterlimit="10" d="M470.953,725.95h-39.012l-10.202-29.611h-54.207
			l-10.205,29.611h-38.068l54.105-146.481h43.483L470.953,725.95z M412.655,669.482l-18.021-52.478l-18.023,52.478H412.655z"/>
		<path stroke="#000000" stroke-width="3" stroke-miterlimit="10" d="M610.307,725.95h-43.729l-31.513-48.082l-32.156,48.082H461.17
			l51.941-73.793l-50.86-72.688h43.605l30.47,45.607l31.334-45.607h41.859l-51.117,71.148L610.307,725.95z"/>
	</g>
	<path display="inline" fill="#E25050" d="M0,658.876v48.117c0,0,346.5,85.007,614-130.378C614,576.615,332.068,763.024,0,658.876z"
		/>
	<path display="inline" d="M163.245,421.871v6.34h32.982v-6.418C184.879,422.03,173.871,422.042,163.245,421.871z"/>
	<path display="inline" d="M270.666,428.211h34.805v-15.682c-11.78,1.785-23.391,3.273-34.805,4.506V428.211z"/>
	<g display="inline">
		<path fill="none" d="M95.869,379.102c0.167,0.028,0.333,0.054,0.5,0.082v-0.082H95.869z"/>
		<path fill="none" d="M379.342,372.258c9.786-2.008,19.35-4.148,28.678-6.395l-13.239-38.553L379.342,372.258z"/>
		<path fill="none" d="M248.891,388.418c7.327-0.304,14.586-0.708,21.775-1.206v-49.839L248.891,388.418z"/>
		<path fill="none" d="M196.228,388.795c7.409,0.205,14.765,0.302,22.06,0.29l-22.06-51.712V388.795z"/>
		<path d="M96.37,379.102v0.082c11.94,1.992,23.79,3.662,35.533,5.023v-30.708H69.309v20.625c8.899,1.842,17.755,3.502,26.56,4.978
			H96.37z"/>
		<path d="M40.336,359.695c0-7.349,1.107-13.834,3.325-19.452c2.217-5.618,5.239-10.25,9.066-13.895
			c4.009-3.766,8.533-6.561,13.576-8.383c5.041-1.822,10.66-2.733,16.855-2.733c5.285,0,10.28,0.699,14.988,2.096
			c4.707,1.398,8.822,3.068,12.346,5.012c3.037,1.64,6.196,3.63,9.476,5.968c3.28,2.339,5.77,4.146,7.471,5.421h3.918v-31.798
			c-9.901-4.798-18.892-8.003-26.969-9.612c-8.079-1.609-16.582-2.415-25.511-2.415c-23.568,0-41.943,6.455-55.123,19.361
			c-12.57,12.31-19.131,28.342-19.714,48.079c12.298,3.796,24.535,7.204,36.702,10.253C40.473,365.08,40.336,362.448,40.336,359.695
			z"/>
		<path d="M23.571,412.221c13.059,12.544,31.129,18.814,54.211,18.814c9.961,0,19.954-1.17,29.976-3.508
			c9.583-2.234,17.339-4.486,23.313-6.749c-51.786-2.694-91.389-9.262-111.941-13.314C20.517,409.118,21.994,410.706,23.571,412.221
			z"/>
		<path d="M95.869,379.102c-8.805-1.476-17.661-3.136-26.56-4.978v4.978H95.869z"/>
		<path d="M196.228,337.373l22.06,51.712c10.323-0.017,20.525-0.249,30.604-0.667l21.775-51.045v49.839
			c11.798-0.819,23.408-1.886,34.805-3.178v-91.488h-40.636l-30.432,68.061l-30.522-68.061h-40.636v94.602
			c11.105,0.803,22.104,1.347,32.982,1.647V337.373z"/>
		<path d="M324.969,428.211h35.258l9.451-27.425h50.204l9.45,27.425h36.131l-18.846-51.02
			c-38.707,13.903-77.103,23.847-114.17,30.773L324.969,428.211z"/>
		<path d="M394.78,327.311l13.239,38.553c10.789-2.599,21.258-5.338,31.394-8.177l-24.062-65.141H375.08l-31.885,86.322
			c12.351-1.982,24.408-4.2,36.146-6.61L394.78,327.311z"/>
		<path d="M511.225,292.546h-40.387l31.479,44.986c11.007-3.98,21.369-7.972,31.024-11.882L511.225,292.546z"/>
		<path d="M605.709,294.667c-30.954,21.903-62.649,40.244-94.521,55.543l6.757,9.657l-48.108,68.344h38.658l29.782-44.531
			l29.186,44.531h40.5L559.89,358.44L605.709,294.667z"/>
		<path d="M568.465,292.546l-17.758,25.848c23.719-10.222,42.085-19.438,54.114-25.848H568.465z"/>
	</g>
</g>
<g id="V2">
	<g>
		<path fill="#FFFFFF" d="M39.836,353.472c0-7.936,1.196-14.937,3.591-21.003c2.393-6.066,5.656-11.067,9.788-15.003
			c4.329-4.065,9.214-7.083,14.658-9.051c5.443-1.967,11.51-2.951,18.199-2.951c5.706,0,11.1,0.756,16.183,2.264
			c5.082,1.509,9.525,3.312,13.33,5.41c3.279,1.771,6.689,3.919,10.231,6.443c3.542,2.525,6.23,4.476,8.067,5.854h4.23v-34.333
			c-10.69-5.181-20.397-8.641-29.119-10.379c-8.723-1.737-17.904-2.607-27.545-2.607c-25.447,0-45.287,6.969-59.517,20.905
			C7.699,312.957,0.584,331.305,0.584,354.062c0,2.356,0.089,4.648,0.226,6.904c13.915,4.32,27.74,8.128,41.461,11.466
			C40.649,366.829,39.836,360.51,39.836,353.472z"/>
		<path fill="#FFFFFF" d="M138.703,346.782H71.119v27.643h29.218v9.506c12.916,1.984,25.708,3.572,38.366,4.798V346.782z"/>
		<path fill="#FFFFFF" d="M80.268,430.5c10.755,0,21.544-1.264,32.366-3.788c3.748-0.874,7.223-1.751,10.459-2.63
			c-41.842-1.99-75.534-6.583-97.216-10.271C39.572,424.923,57.692,430.5,80.268,430.5z"/>
		<path fill="#FFFFFF" d="M193.65,329.37l26.67,62.521c9.261-0.171,18.419-0.518,27.47-1.024l26.233-61.496v59.559
			c12.777-1.168,25.31-2.645,37.58-4.381V280.969h-43.875l-32.857,73.486l-32.956-73.486h-43.875v109.369
			c12.008,0.828,23.883,1.338,35.612,1.555V329.37z"/>
		<path fill="#FFFFFF" d="M274.023,427.45h37.58v-15.16c-12.709,2.283-25.25,4.208-37.58,5.813V427.45z"/>
		<path fill="#FFFFFF" d="M158.039,425.049v2.401h35.612v-2.846C181.377,425.009,169.487,425.139,158.039,425.049z"/>
		<path fill="#FFFFFF" d="M220.802,393.019h26.07l0.918-2.152c-9.05,0.507-18.209,0.853-27.47,1.024L220.802,393.019z"/>
		<path fill="#FFFFFF" d="M449.796,373.173c-24.796,9.873-49.558,18.004-73.998,24.666h44.832l10.202,29.611h29.229l6.416-9.115
			L449.796,373.173z"/>
		<path fill="#FFFFFF" d="M318.149,427.45h38.068l9.262-26.875c-13.74,3.528-27.363,6.594-40.821,9.253L318.149,427.45z"/>
		<path fill="#FFFFFF" d="M375.502,370.982l18.023-52.478l15.764,45.904c11.609-3.146,22.822-6.458,33.622-9.874l-27.173-73.566
			h-43.483l-36.877,99.839c16.552-2.864,32.565-6.178,47.984-9.825H375.502z"/>
		<path fill="#FFFFFF" d="M604.063,287.005c-32.295,25.318-62.983,42.583-96.73,59.978l4.67,6.674l-45.525,64.678l3.367,9.115H501.8
			l32.156-48.082l31.513,48.082h43.729l-51.904-75.333L604.063,287.005z"/>
		<path fill="#FFFFFF" d="M504.747,280.969h-43.605l37.602,53.74c11.705-4.623,22.634-9.24,32.731-13.734L504.747,280.969z"/>
		<path fill="#FFFFFF" d="M608.41,280.969h-41.859l-24.046,35c33.396-15.462,56.146-28.788,65.629-34.615L608.41,280.969z"/>
		<polygon fill="#FFFFFF" points="460.061,427.45 469.844,427.45 466.477,418.335 		"/>
	</g>
</g>
<g id="backup" display="none">
	<text transform="matrix(1 0 0 1 -8.8496 540.8525)" display="inline" font-family="'Verdana-Bold'" font-size="186.5968">GMAX</text>
</g>
</svg>
